<mxfile host="app.diagrams.net" modified="2021-06-10T17:43:50.310Z" agent="5.0 (Windows NT 10.0; Win64; x64) AppleWebKit/537.36 (KHTML, like Gecko) Chrome/85.0.4183.121 Safari/537.36 HBPC/11.0.5.300" etag="DzjZmfLwz2KZSsx-cB45" version="14.7.6" type="github" pages="2">
  <diagram name="网络现状" id="55a83fd1-7818-8e21-69c5-c3457e3827bb">
    <mxGraphModel dx="1502" dy="1016" grid="1" gridSize="10" guides="1" tooltips="1" connect="1" arrows="1" fold="1" page="1" pageScale="1" pageWidth="1100" pageHeight="850" background="none" math="0" shadow="0">
      <root>
        <mxCell id="0" />
        <mxCell id="1" parent="0" />
        <mxCell id="UoDFM5P8bcZsSC12evqb-13" value="" style="rounded=1;whiteSpace=wrap;html=1;" parent="1" vertex="1">
          <mxGeometry x="180" y="100" width="160" height="160" as="geometry" />
        </mxCell>
        <mxCell id="UoDFM5P8bcZsSC12evqb-8" value="" style="rounded=1;whiteSpace=wrap;html=1;" parent="1" vertex="1">
          <mxGeometry x="380" y="530" width="280" height="290" as="geometry" />
        </mxCell>
        <mxCell id="UoDFM5P8bcZsSC12evqb-9" value="" style="rounded=1;whiteSpace=wrap;html=1;" parent="1" vertex="1">
          <mxGeometry x="740" y="100" width="160" height="160" as="geometry" />
        </mxCell>
        <mxCell id="69ecfefc5c41e42c-18" style="edgeStyle=none;rounded=0;html=1;labelBackgroundColor=none;endArrow=none;strokeWidth=2;fontFamily=Verdana;fontSize=22" parent="1" source="UoDFM5P8bcZsSC12evqb-1" target="69ecfefc5c41e42c-3" edge="1">
          <mxGeometry relative="1" as="geometry">
            <mxPoint x="520" y="735" as="sourcePoint" />
          </mxGeometry>
        </mxCell>
        <mxCell id="69ecfefc5c41e42c-2" value="Internet" style="image;html=1;labelBackgroundColor=#ffffff;image=img/lib/clip_art/networking/Cloud_128x128.png;rounded=1;shadow=0;comic=0;strokeWidth=2;fontSize=22;labelPosition=center;verticalLabelPosition=top;align=center;verticalAlign=bottom;" parent="1" vertex="1">
          <mxGeometry x="480" y="410" width="80" height="80" as="geometry" />
        </mxCell>
        <mxCell id="69ecfefc5c41e42c-19" style="edgeStyle=none;rounded=0;html=1;labelBackgroundColor=none;endArrow=none;strokeWidth=2;fontFamily=Verdana;fontSize=22" parent="1" source="UoDFM5P8bcZsSC12evqb-8" target="69ecfefc5c41e42c-2" edge="1">
          <mxGeometry relative="1" as="geometry" />
        </mxCell>
        <mxCell id="69ecfefc5c41e42c-3" value="Firewall" style="image;html=1;labelBackgroundColor=#ffffff;image=img/lib/clip_art/networking/Firewall_128x128.png;rounded=1;shadow=0;comic=0;strokeWidth=2;fontSize=22;labelPosition=right;verticalLabelPosition=middle;align=left;verticalAlign=middle;" parent="1" vertex="1">
          <mxGeometry x="480" y="560" width="80" height="80" as="geometry" />
        </mxCell>
        <mxCell id="69ecfefc5c41e42c-5" value="PC" style="image;html=1;labelBackgroundColor=#ffffff;image=img/lib/clip_art/computers/Monitor_Tower_128x128.png;rounded=1;shadow=0;comic=0;strokeWidth=2;fontSize=22" parent="1" vertex="1">
          <mxGeometry x="780" y="130" width="80" height="80" as="geometry" />
        </mxCell>
        <mxCell id="69ecfefc5c41e42c-12" value="" style="html=1;fillColor=#CCCCCC;strokeColor=#6881B3;gradientColor=none;gradientDirection=north;strokeWidth=2;shape=mxgraph.networks.comm_link_edge;html=1;labelBackgroundColor=none;endArrow=none;fontFamily=Verdana;fontSize=22;fontColor=#000000;fontStyle=1;exitX=0;exitY=1;exitDx=0;exitDy=0;entryX=0.9;entryY=1.017;entryDx=0;entryDy=0;entryPerimeter=0;" parent="1" source="69ecfefc5c41e42c-5" target="69ecfefc5c41e42c-2" edge="1">
          <mxGeometry width="100" height="100" relative="1" as="geometry">
            <mxPoint x="330" y="751.9565217391305" as="sourcePoint" />
            <mxPoint x="540" y="520" as="targetPoint" />
          </mxGeometry>
        </mxCell>
        <mxCell id="UoDFM5P8bcZsSC12evqb-1" value="&lt;font style=&quot;font-size: 18px&quot;&gt;Server&lt;/font&gt;" style="image;html=1;image=img/lib/clip_art/computers/Server_128x128.png" parent="1" vertex="1">
          <mxGeometry x="480" y="690" width="80" height="80" as="geometry" />
        </mxCell>
        <mxCell id="UoDFM5P8bcZsSC12evqb-2" value="PC" style="image;html=1;labelBackgroundColor=#ffffff;image=img/lib/clip_art/computers/Monitor_Tower_128x128.png;rounded=1;shadow=0;comic=0;strokeWidth=2;fontSize=22" parent="1" vertex="1">
          <mxGeometry x="220" y="130" width="80" height="80" as="geometry" />
        </mxCell>
        <mxCell id="UoDFM5P8bcZsSC12evqb-3" value="" style="html=1;fillColor=#CCCCCC;strokeColor=#6881B3;gradientColor=none;gradientDirection=north;strokeWidth=2;shape=mxgraph.networks.comm_link_edge;html=1;labelBackgroundColor=none;endArrow=none;fontFamily=Verdana;fontSize=22;fontColor=#000000;fontStyle=1;entryX=0;entryY=1;entryDx=0;entryDy=0;exitX=1;exitY=1;exitDx=0;exitDy=0;" parent="1" source="UoDFM5P8bcZsSC12evqb-2" target="69ecfefc5c41e42c-2" edge="1">
          <mxGeometry width="100" height="100" relative="1" as="geometry">
            <mxPoint x="792.8571428571427" y="220" as="sourcePoint" />
            <mxPoint x="570" y="460" as="targetPoint" />
          </mxGeometry>
        </mxCell>
        <mxCell id="UoDFM5P8bcZsSC12evqb-10" value="&lt;b&gt;&lt;font style=&quot;font-size: 18px&quot;&gt;海外机构1&lt;/font&gt;&lt;/b&gt;" style="text;html=1;strokeColor=none;fillColor=none;align=center;verticalAlign=middle;whiteSpace=wrap;rounded=0;" parent="1" vertex="1">
          <mxGeometry x="200" y="270" width="120" height="20" as="geometry" />
        </mxCell>
        <mxCell id="UoDFM5P8bcZsSC12evqb-11" value="&lt;b&gt;&lt;font style=&quot;font-size: 18px&quot;&gt;海外机构2&lt;/font&gt;&lt;/b&gt;" style="text;html=1;strokeColor=none;fillColor=none;align=center;verticalAlign=middle;whiteSpace=wrap;rounded=0;" parent="1" vertex="1">
          <mxGeometry x="760" y="270" width="120" height="20" as="geometry" />
        </mxCell>
        <mxCell id="UoDFM5P8bcZsSC12evqb-12" style="edgeStyle=none;rounded=0;html=1;labelBackgroundColor=none;endArrow=none;strokeWidth=2;fontFamily=Verdana;fontSize=22" parent="1" source="69ecfefc5c41e42c-3" target="UoDFM5P8bcZsSC12evqb-8" edge="1">
          <mxGeometry relative="1" as="geometry">
            <mxPoint x="520" y="560" as="sourcePoint" />
            <mxPoint x="520" y="490" as="targetPoint" />
          </mxGeometry>
        </mxCell>
        <mxCell id="UoDFM5P8bcZsSC12evqb-18" value="&lt;font color=&quot;#006600&quot; size=&quot;1&quot;&gt;&lt;b style=&quot;font-size: 20px&quot;&gt;SSL VPN&lt;/b&gt;&lt;/font&gt;" style="text;html=1;strokeColor=none;fillColor=none;align=center;verticalAlign=middle;whiteSpace=wrap;rounded=0;" parent="1" vertex="1">
          <mxGeometry x="620" y="340" width="120" height="20" as="geometry" />
        </mxCell>
        <mxCell id="UoDFM5P8bcZsSC12evqb-19" value="&lt;span style=&quot;font-size: 18px&quot;&gt;&lt;b&gt;南网国际公司&lt;/b&gt;&lt;/span&gt;" style="text;html=1;strokeColor=none;fillColor=none;align=center;verticalAlign=middle;whiteSpace=wrap;rounded=0;" parent="1" vertex="1">
          <mxGeometry x="460" y="830" width="120" height="20" as="geometry" />
        </mxCell>
        <mxCell id="UoDFM5P8bcZsSC12evqb-24" value="&lt;font color=&quot;#006600&quot; size=&quot;1&quot;&gt;&lt;b style=&quot;font-size: 20px&quot;&gt;SSL VPN&lt;/b&gt;&lt;/font&gt;" style="text;html=1;strokeColor=none;fillColor=none;align=center;verticalAlign=middle;whiteSpace=wrap;rounded=0;" parent="1" vertex="1">
          <mxGeometry x="330" y="340" width="120" height="20" as="geometry" />
        </mxCell>
      </root>
    </mxGraphModel>
  </diagram>
  <diagram name="方案要求" id="J3iKTEX1bYKAhDcpGcXU">
    <mxGraphModel dx="1502" dy="1866" grid="1" gridSize="10" guides="1" tooltips="1" connect="1" arrows="1" fold="1" page="1" pageScale="1" pageWidth="1100" pageHeight="850" background="none" math="0" shadow="0">
      <root>
        <mxCell id="8wY8YGd6H8aaKuv0ZDOM-0" />
        <mxCell id="8wY8YGd6H8aaKuv0ZDOM-1" parent="8wY8YGd6H8aaKuv0ZDOM-0" />
        <mxCell id="8wY8YGd6H8aaKuv0ZDOM-3" value="" style="rounded=1;whiteSpace=wrap;html=1;" vertex="1" parent="8wY8YGd6H8aaKuv0ZDOM-1">
          <mxGeometry x="380" y="530" width="280" height="290" as="geometry" />
        </mxCell>
        <mxCell id="8wY8YGd6H8aaKuv0ZDOM-5" style="edgeStyle=none;rounded=0;html=1;labelBackgroundColor=none;endArrow=none;strokeWidth=2;fontFamily=Verdana;fontSize=22" edge="1" parent="8wY8YGd6H8aaKuv0ZDOM-1" source="8wY8YGd6H8aaKuv0ZDOM-11" target="8wY8YGd6H8aaKuv0ZDOM-8">
          <mxGeometry relative="1" as="geometry">
            <mxPoint x="520" y="735" as="sourcePoint" />
          </mxGeometry>
        </mxCell>
        <mxCell id="8wY8YGd6H8aaKuv0ZDOM-6" value="" style="image;html=1;labelBackgroundColor=#ffffff;image=img/lib/clip_art/networking/Cloud_128x128.png;rounded=1;shadow=0;comic=0;strokeWidth=2;fontSize=22;labelPosition=center;verticalLabelPosition=top;align=center;verticalAlign=bottom;" vertex="1" parent="8wY8YGd6H8aaKuv0ZDOM-1">
          <mxGeometry x="480" y="440" width="80" height="80" as="geometry" />
        </mxCell>
        <mxCell id="8wY8YGd6H8aaKuv0ZDOM-7" style="edgeStyle=none;rounded=0;html=1;labelBackgroundColor=none;endArrow=none;strokeWidth=2;fontFamily=Verdana;fontSize=22" edge="1" parent="8wY8YGd6H8aaKuv0ZDOM-1" source="8wY8YGd6H8aaKuv0ZDOM-3" target="8wY8YGd6H8aaKuv0ZDOM-6">
          <mxGeometry relative="1" as="geometry" />
        </mxCell>
        <mxCell id="8wY8YGd6H8aaKuv0ZDOM-8" value="Firewall" style="image;html=1;labelBackgroundColor=#ffffff;image=img/lib/clip_art/networking/Firewall_128x128.png;rounded=1;shadow=0;comic=0;strokeWidth=2;fontSize=22;labelPosition=right;verticalLabelPosition=middle;align=left;verticalAlign=middle;" vertex="1" parent="8wY8YGd6H8aaKuv0ZDOM-1">
          <mxGeometry x="480" y="560" width="80" height="80" as="geometry" />
        </mxCell>
        <mxCell id="8wY8YGd6H8aaKuv0ZDOM-11" value="&lt;font style=&quot;font-size: 18px&quot;&gt;Server&lt;/font&gt;" style="image;html=1;image=img/lib/clip_art/computers/Server_128x128.png" vertex="1" parent="8wY8YGd6H8aaKuv0ZDOM-1">
          <mxGeometry x="480" y="690" width="80" height="80" as="geometry" />
        </mxCell>
        <mxCell id="8wY8YGd6H8aaKuv0ZDOM-16" style="edgeStyle=none;rounded=0;html=1;labelBackgroundColor=none;endArrow=none;strokeWidth=2;fontFamily=Verdana;fontSize=22" edge="1" parent="8wY8YGd6H8aaKuv0ZDOM-1" source="8wY8YGd6H8aaKuv0ZDOM-8" target="8wY8YGd6H8aaKuv0ZDOM-3">
          <mxGeometry relative="1" as="geometry">
            <mxPoint x="520" y="560" as="sourcePoint" />
            <mxPoint x="520" y="490" as="targetPoint" />
          </mxGeometry>
        </mxCell>
        <mxCell id="8wY8YGd6H8aaKuv0ZDOM-18" value="&lt;span style=&quot;font-size: 18px&quot;&gt;&lt;b&gt;南网国际公司&lt;/b&gt;&lt;/span&gt;" style="text;html=1;strokeColor=none;fillColor=none;align=center;verticalAlign=middle;whiteSpace=wrap;rounded=0;" vertex="1" parent="8wY8YGd6H8aaKuv0ZDOM-1">
          <mxGeometry x="460" y="830" width="120" height="20" as="geometry" />
        </mxCell>
        <mxCell id="8wY8YGd6H8aaKuv0ZDOM-19" value="&lt;font color=&quot;#006600&quot; style=&quot;font-size: 14px&quot;&gt;SSL VPN&lt;/font&gt;" style="text;html=1;strokeColor=none;fillColor=none;align=center;verticalAlign=middle;whiteSpace=wrap;rounded=0;" vertex="1" parent="8wY8YGd6H8aaKuv0ZDOM-1">
          <mxGeometry x="240" y="200" width="120" height="20" as="geometry" />
        </mxCell>
        <mxCell id="tmY6Jpmy1XnIaRPWnXEy-0" value="&lt;b&gt;&lt;font style=&quot;font-size: 24px&quot;&gt;跨境访问平台&lt;/font&gt;&lt;/b&gt;" style="ellipse;shape=cloud;whiteSpace=wrap;html=1;" vertex="1" parent="8wY8YGd6H8aaKuv0ZDOM-1">
          <mxGeometry x="368.75" y="210" width="302.5" height="110" as="geometry" />
        </mxCell>
        <mxCell id="hd8BD2pnq3l9H0OPVhCC-1" value="" style="dashed=0;connectable=0;html=1;fillColor=#757575;strokeColor=none;shape=mxgraph.gcp2.google_network_edge_cache;part=1;labelPosition=right;verticalLabelPosition=middle;align=left;verticalAlign=middle;spacingLeft=5;fontSize=12;" vertex="1" parent="8wY8YGd6H8aaKuv0ZDOM-1">
          <mxGeometry x="504" y="300" width="32" height="32" as="geometry">
            <mxPoint x="5" y="-16" as="offset" />
          </mxGeometry>
        </mxCell>
        <mxCell id="hd8BD2pnq3l9H0OPVhCC-5" value="" style="group" vertex="1" connectable="0" parent="8wY8YGd6H8aaKuv0ZDOM-1">
          <mxGeometry x="710" y="-20" width="160" height="190" as="geometry" />
        </mxCell>
        <mxCell id="8wY8YGd6H8aaKuv0ZDOM-4" value="" style="rounded=1;whiteSpace=wrap;html=1;" vertex="1" parent="hd8BD2pnq3l9H0OPVhCC-5">
          <mxGeometry width="160" height="160" as="geometry" />
        </mxCell>
        <mxCell id="8wY8YGd6H8aaKuv0ZDOM-9" value="PC" style="image;html=1;labelBackgroundColor=#ffffff;image=img/lib/clip_art/computers/Monitor_Tower_128x128.png;rounded=1;shadow=0;comic=0;strokeWidth=2;fontSize=22" vertex="1" parent="hd8BD2pnq3l9H0OPVhCC-5">
          <mxGeometry x="40" y="30" width="80" height="80" as="geometry" />
        </mxCell>
        <mxCell id="8wY8YGd6H8aaKuv0ZDOM-15" value="&lt;b&gt;&lt;font style=&quot;font-size: 18px&quot;&gt;海外机构2&lt;/font&gt;&lt;/b&gt;" style="text;html=1;strokeColor=none;fillColor=none;align=center;verticalAlign=middle;whiteSpace=wrap;rounded=0;" vertex="1" parent="hd8BD2pnq3l9H0OPVhCC-5">
          <mxGeometry x="20" y="170" width="120" height="20" as="geometry" />
        </mxCell>
        <mxCell id="hd8BD2pnq3l9H0OPVhCC-6" value="" style="group" vertex="1" connectable="0" parent="8wY8YGd6H8aaKuv0ZDOM-1">
          <mxGeometry x="150" y="-20" width="160" height="190" as="geometry" />
        </mxCell>
        <mxCell id="8wY8YGd6H8aaKuv0ZDOM-2" value="" style="rounded=1;whiteSpace=wrap;html=1;" vertex="1" parent="hd8BD2pnq3l9H0OPVhCC-6">
          <mxGeometry width="160" height="160" as="geometry" />
        </mxCell>
        <mxCell id="8wY8YGd6H8aaKuv0ZDOM-12" value="PC" style="image;html=1;labelBackgroundColor=#ffffff;image=img/lib/clip_art/computers/Monitor_Tower_128x128.png;rounded=1;shadow=0;comic=0;strokeWidth=2;fontSize=22" vertex="1" parent="hd8BD2pnq3l9H0OPVhCC-6">
          <mxGeometry x="40" y="30" width="80" height="80" as="geometry" />
        </mxCell>
        <mxCell id="8wY8YGd6H8aaKuv0ZDOM-14" value="&lt;b&gt;&lt;font style=&quot;font-size: 18px&quot;&gt;海外机构1&lt;/font&gt;&lt;/b&gt;" style="text;html=1;strokeColor=none;fillColor=none;align=center;verticalAlign=middle;whiteSpace=wrap;rounded=0;" vertex="1" parent="hd8BD2pnq3l9H0OPVhCC-6">
          <mxGeometry x="20" y="170" width="120" height="20" as="geometry" />
        </mxCell>
        <mxCell id="hd8BD2pnq3l9H0OPVhCC-8" style="edgeStyle=none;rounded=0;html=1;labelBackgroundColor=none;endArrow=none;strokeWidth=3;fontFamily=Verdana;fontSize=22;exitX=1;exitY=1;exitDx=0;exitDy=0;fillColor=#0050ef;strokeColor=#001DBC;" edge="1" parent="8wY8YGd6H8aaKuv0ZDOM-1" source="8wY8YGd6H8aaKuv0ZDOM-12">
          <mxGeometry relative="1" as="geometry">
            <mxPoint x="440" y="430" as="sourcePoint" />
            <mxPoint x="420" y="240" as="targetPoint" />
          </mxGeometry>
        </mxCell>
        <mxCell id="hd8BD2pnq3l9H0OPVhCC-2" value="" style="dashed=0;connectable=0;html=1;fillColor=#757575;strokeColor=none;shape=mxgraph.gcp2.google_network_edge_cache;part=1;labelPosition=right;verticalLabelPosition=middle;align=left;verticalAlign=middle;spacingLeft=5;fontSize=12;" vertex="1" parent="8wY8YGd6H8aaKuv0ZDOM-1">
          <mxGeometry x="400" y="220" width="32" height="32" as="geometry">
            <mxPoint x="5" y="-16" as="offset" />
          </mxGeometry>
        </mxCell>
        <mxCell id="hd8BD2pnq3l9H0OPVhCC-9" style="edgeStyle=none;rounded=0;html=1;labelBackgroundColor=none;endArrow=none;strokeWidth=3;fontFamily=Verdana;fontSize=22;exitX=0;exitY=1;exitDx=0;exitDy=0;entryX=0.857;entryY=0.248;entryDx=0;entryDy=0;entryPerimeter=0;fillColor=#0050ef;strokeColor=#001DBC;" edge="1" parent="8wY8YGd6H8aaKuv0ZDOM-1" source="8wY8YGd6H8aaKuv0ZDOM-9" target="tmY6Jpmy1XnIaRPWnXEy-0">
          <mxGeometry relative="1" as="geometry">
            <mxPoint x="280" y="100" as="sourcePoint" />
            <mxPoint x="430" y="250" as="targetPoint" />
          </mxGeometry>
        </mxCell>
        <mxCell id="hd8BD2pnq3l9H0OPVhCC-3" value="" style="dashed=0;connectable=0;html=1;fillColor=#757575;strokeColor=none;shape=mxgraph.gcp2.google_network_edge_cache;part=1;labelPosition=right;verticalLabelPosition=middle;align=left;verticalAlign=middle;spacingLeft=5;fontSize=12;" vertex="1" parent="8wY8YGd6H8aaKuv0ZDOM-1">
          <mxGeometry x="610" y="220" width="32" height="32" as="geometry">
            <mxPoint x="5" y="-16" as="offset" />
          </mxGeometry>
        </mxCell>
        <mxCell id="hd8BD2pnq3l9H0OPVhCC-10" style="edgeStyle=none;rounded=0;html=1;labelBackgroundColor=none;endArrow=none;strokeWidth=2;fontFamily=Verdana;fontSize=22;exitX=0.5;exitY=0;exitDx=0;exitDy=0;" edge="1" parent="8wY8YGd6H8aaKuv0ZDOM-1" source="8wY8YGd6H8aaKuv0ZDOM-6">
          <mxGeometry relative="1" as="geometry">
            <mxPoint x="760" y="100" as="sourcePoint" />
            <mxPoint x="520" y="330" as="targetPoint" />
          </mxGeometry>
        </mxCell>
        <mxCell id="hd8BD2pnq3l9H0OPVhCC-15" value="&lt;font style=&quot;font-size: 18px&quot;&gt;国内互联网&lt;/font&gt;" style="edgeLabel;html=1;align=center;verticalAlign=middle;resizable=0;points=[];fontSize=22;" vertex="1" connectable="0" parent="hd8BD2pnq3l9H0OPVhCC-10">
          <mxGeometry x="-0.4071" y="-1" relative="1" as="geometry">
            <mxPoint as="offset" />
          </mxGeometry>
        </mxCell>
        <mxCell id="hd8BD2pnq3l9H0OPVhCC-11" value="&lt;span style=&quot;font-size: 13px&quot;&gt;海外POP&lt;/span&gt;" style="text;html=1;strokeColor=none;fillColor=none;align=center;verticalAlign=middle;whiteSpace=wrap;rounded=0;" vertex="1" parent="8wY8YGd6H8aaKuv0ZDOM-1">
          <mxGeometry x="368.75" y="200" width="120" height="20" as="geometry" />
        </mxCell>
        <mxCell id="hd8BD2pnq3l9H0OPVhCC-12" value="&lt;span style=&quot;font-size: 13px&quot;&gt;海外POP&lt;/span&gt;" style="text;html=1;strokeColor=none;fillColor=none;align=center;verticalAlign=middle;whiteSpace=wrap;rounded=0;" vertex="1" parent="8wY8YGd6H8aaKuv0ZDOM-1">
          <mxGeometry x="560" y="200" width="120" height="20" as="geometry" />
        </mxCell>
        <mxCell id="hd8BD2pnq3l9H0OPVhCC-13" value="&lt;span style=&quot;font-size: 13px&quot;&gt;国内POP&lt;/span&gt;" style="text;html=1;strokeColor=none;fillColor=none;align=center;verticalAlign=middle;whiteSpace=wrap;rounded=0;" vertex="1" parent="8wY8YGd6H8aaKuv0ZDOM-1">
          <mxGeometry x="460" y="330" width="120" height="20" as="geometry" />
        </mxCell>
        <mxCell id="hd8BD2pnq3l9H0OPVhCC-14" value="" style="curved=1;endArrow=classic;html=1;fontSize=22;strokeWidth=3;entryX=0.75;entryY=0;entryDx=0;entryDy=0;fillColor=#d5e8d4;strokeColor=#82b366;" edge="1" parent="8wY8YGd6H8aaKuv0ZDOM-1" target="8wY8YGd6H8aaKuv0ZDOM-8">
          <mxGeometry width="50" height="50" relative="1" as="geometry">
            <mxPoint x="750" y="110" as="sourcePoint" />
            <mxPoint x="540" y="550" as="targetPoint" />
            <Array as="points">
              <mxPoint x="670" y="290" />
              <mxPoint x="540" y="280" />
            </Array>
          </mxGeometry>
        </mxCell>
        <mxCell id="hd8BD2pnq3l9H0OPVhCC-16" value="" style="curved=1;endArrow=classic;html=1;fontSize=22;strokeWidth=3;entryX=0.25;entryY=0;entryDx=0;entryDy=0;fillColor=#d5e8d4;strokeColor=#82b366;" edge="1" parent="8wY8YGd6H8aaKuv0ZDOM-1" target="8wY8YGd6H8aaKuv0ZDOM-8">
          <mxGeometry width="50" height="50" relative="1" as="geometry">
            <mxPoint x="260" y="108" as="sourcePoint" />
            <mxPoint x="550" y="560" as="targetPoint" />
            <Array as="points">
              <mxPoint x="380" y="300" />
              <mxPoint x="500" y="270" />
            </Array>
          </mxGeometry>
        </mxCell>
        <mxCell id="hd8BD2pnq3l9H0OPVhCC-18" value="&lt;font color=&quot;#006600&quot; style=&quot;font-size: 14px&quot;&gt;SSL VPN&lt;/font&gt;" style="text;html=1;strokeColor=none;fillColor=none;align=center;verticalAlign=middle;whiteSpace=wrap;rounded=0;" vertex="1" parent="8wY8YGd6H8aaKuv0ZDOM-1">
          <mxGeometry x="671.25" y="200" width="120" height="20" as="geometry" />
        </mxCell>
      </root>
    </mxGraphModel>
  </diagram>
</mxfile>
